<svg width="157" height="34" viewBox="0 0 157 34" fill="none" xmlns="http://www.w3.org/2000/svg">
<path d="M2 2C9.65269 2 9.65269 32 17.3054 32C24.9581 32 24.9581 2 32.6108 2C40.2635 2 40.2635 32 47.8982 32C55.5511 32 55.5511 2 63.1857 2C70.8385 2 70.8385 32 78.4731 32C86.1259 32 86.1259 2 93.7782 2C101.431 2 101.431 32 109.084 32C116.736 32 116.736 2 124.389 2C132.042 2 132.042 32 139.695 32C147.347 32 147.347 2 155 2" stroke="#219BE4" stroke-width="3" stroke-miterlimit="10" stroke-linecap="round"/>
</svg>
