<svg width="55" height="61" viewBox="0 0 55 61" fill="none" xmlns="http://www.w3.org/2000/svg">
<path d="M0.583557 30.8649H25.6406L12.1628 44.3387C12.0655 44.4501 12.0142 44.5943 12.0192 44.7422C12.0242 44.89 12.0852 45.0304 12.1898 45.135C12.2944 45.2396 12.4348 45.3006 12.5826 45.3056C12.7305 45.3106 12.8747 45.2593 12.9862 45.162L26.4639 31.6883V59.9308C26.4573 60.0113 26.4673 60.0922 26.4935 60.1685C26.5197 60.2449 26.5615 60.3149 26.6161 60.3743C26.6708 60.4337 26.7372 60.4811 26.8111 60.5135C26.885 60.5459 26.9648 60.5626 27.0455 60.5626C27.1262 60.5626 27.206 60.5459 27.2799 60.5135C27.3538 60.4811 27.4202 60.4337 27.4748 60.3743C27.5295 60.3149 27.5712 60.2449 27.5974 60.1685C27.6236 60.0922 27.6337 60.0113 27.627 59.9308V31.6843L41.1008 45.162C41.2123 45.2593 41.3565 45.3106 41.5043 45.3056C41.6522 45.3006 41.7926 45.2396 41.8972 45.135C42.0018 45.0304 42.0627 44.89 42.0678 44.7422C42.0728 44.5943 42.0215 44.4501 41.9242 44.3387L28.4504 30.8649H53.5074C53.6622 30.8649 53.8106 30.8034 53.9201 30.694C54.0295 30.5845 54.091 30.4361 54.091 30.2813C54.091 30.1266 54.0295 29.9781 53.9201 29.8687C53.8106 29.7592 53.6622 29.6978 53.5074 29.6978H28.4504L41.9242 16.224C42.0053 16.1436 42.0609 16.0411 42.0839 15.9293C42.107 15.8175 42.0965 15.7014 42.0538 15.5955C42.0111 15.4896 41.9381 15.3987 41.844 15.3342C41.7498 15.2696 41.6387 15.2343 41.5245 15.2327C41.3748 15.2361 41.232 15.2961 41.1248 15.4006L27.627 28.8784V0.631812C27.6337 0.551387 27.6236 0.470453 27.5974 0.394122C27.5712 0.317792 27.5295 0.247725 27.4748 0.188348C27.4202 0.128972 27.3538 0.0815768 27.2799 0.0491576C27.206 0.0167384 27.1262 0 27.0455 0C26.9648 0 26.885 0.0167384 26.8111 0.0491576C26.7372 0.0815768 26.6708 0.128972 26.6161 0.188348C26.5615 0.247725 26.5197 0.317792 26.4935 0.394122C26.4673 0.470453 26.4573 0.551387 26.4639 0.631812V28.8744L12.9862 15.4006C12.8799 15.2947 12.7365 15.2345 12.5865 15.2327C12.4368 15.2361 12.2939 15.2961 12.1868 15.4006C12.1324 15.4545 12.0892 15.5186 12.0597 15.5893C12.0303 15.6599 12.0151 15.7357 12.0151 15.8123C12.0151 15.8889 12.0303 15.9647 12.0597 16.0353C12.0892 16.106 12.1324 16.1701 12.1868 16.224L25.6406 29.6978H0.583557C0.428788 29.6978 0.280358 29.7592 0.17092 29.8687C0.0614818 29.9781 0 30.1266 0 30.2813C0 30.4361 0.0614818 30.5845 0.17092 30.694C0.280358 30.8034 0.428788 30.8649 0.583557 30.8649Z" fill="#635AD9"/>
<path d="M0.583557 30.8649H25.6406L12.1628 44.3387C12.0655 44.4501 12.0142 44.5943 12.0192 44.7422C12.0242 44.89 12.0852 45.0304 12.1898 45.135C12.2944 45.2396 12.4348 45.3006 12.5826 45.3056C12.7305 45.3106 12.8747 45.2593 12.9862 45.162L26.4639 31.6883V59.9308C26.4573 60.0113 26.4673 60.0922 26.4935 60.1685C26.5197 60.2449 26.5615 60.3149 26.6161 60.3743C26.6708 60.4337 26.7372 60.4811 26.8111 60.5135C26.885 60.5459 26.9648 60.5626 27.0455 60.5626C27.1262 60.5626 27.206 60.5459 27.2799 60.5135C27.3538 60.4811 27.4202 60.4337 27.4748 60.3743C27.5295 60.3149 27.5712 60.2449 27.5974 60.1685C27.6236 60.0922 27.6337 60.0113 27.627 59.9308V31.6843L41.1008 45.162C41.2123 45.2593 41.3565 45.3106 41.5043 45.3056C41.6522 45.3006 41.7926 45.2396 41.8972 45.135C42.0018 45.0304 42.0627 44.89 42.0678 44.7422C42.0728 44.5943 42.0215 44.4501 41.9242 44.3387L28.4504 30.8649H53.5074C53.6622 30.8649 53.8106 30.8034 53.9201 30.694C54.0295 30.5845 54.091 30.4361 54.091 30.2813C54.091 30.1266 54.0295 29.9781 53.9201 29.8687C53.8106 29.7592 53.6622 29.6978 53.5074 29.6978H28.4504L41.9242 16.224C42.0053 16.1436 42.0609 16.0411 42.0839 15.9293C42.107 15.8175 42.0965 15.7014 42.0538 15.5955C42.0111 15.4896 41.9381 15.3987 41.844 15.3342C41.7498 15.2696 41.6387 15.2343 41.5245 15.2327C41.3748 15.2361 41.232 15.2961 41.1248 15.4006L27.627 28.8784V0.631812C27.6337 0.551387 27.6236 0.470453 27.5974 0.394122C27.5712 0.317792 27.5295 0.247725 27.4748 0.188348C27.4202 0.128972 27.3538 0.0815768 27.2799 0.0491576C27.206 0.0167384 27.1262 0 27.0455 0C26.9648 0 26.885 0.0167384 26.8111 0.0491576C26.7372 0.0815768 26.6708 0.128972 26.6161 0.188348C26.5615 0.247725 26.5197 0.317792 26.4935 0.394122C26.4673 0.470453 26.4573 0.551387 26.4639 0.631812V28.8744L12.9862 15.4006C12.8799 15.2947 12.7365 15.2345 12.5865 15.2327C12.4368 15.2361 12.2939 15.2961 12.1868 15.4006C12.1324 15.4545 12.0892 15.5186 12.0597 15.5893C12.0303 15.6599 12.0151 15.7357 12.0151 15.8123C12.0151 15.8889 12.0303 15.9647 12.0597 16.0353C12.0892 16.106 12.1324 16.1701 12.1868 16.224L25.6406 29.6978H0.583557C0.428788 29.6978 0.280358 29.7592 0.17092 29.8687C0.0614818 29.9781 0 30.1266 0 30.2813C0 30.4361 0.0614818 30.5845 0.17092 30.694C0.280358 30.8034 0.428788 30.8649 0.583557 30.8649Z" fill="#635AD9"/>
<g style="mix-blend-mode:soft-light" opacity="0.9">
<path d="M0.583557 30.8649H25.6406L12.1628 44.3387C12.0655 44.4501 12.0142 44.5943 12.0192 44.7422C12.0242 44.89 12.0852 45.0304 12.1898 45.135C12.2944 45.2396 12.4348 45.3006 12.5826 45.3056C12.7305 45.3106 12.8747 45.2593 12.9862 45.162L26.4639 31.6883V59.9308C26.4573 60.0113 26.4673 60.0922 26.4935 60.1685C26.5197 60.2449 26.5615 60.3149 26.6161 60.3743C26.6708 60.4337 26.7372 60.4811 26.8111 60.5135C26.885 60.5459 26.9648 60.5626 27.0455 60.5626C27.1262 60.5626 27.206 60.5459 27.2799 60.5135C27.3538 60.4811 27.4202 60.4337 27.4748 60.3743C27.5295 60.3149 27.5712 60.2449 27.5974 60.1685C27.6236 60.0922 27.6337 60.0113 27.627 59.9308V31.6843L41.1008 45.162C41.2123 45.2593 41.3565 45.3106 41.5043 45.3056C41.6522 45.3006 41.7926 45.2396 41.8972 45.135C42.0018 45.0304 42.0627 44.89 42.0678 44.7422C42.0728 44.5943 42.0215 44.4501 41.9242 44.3387L28.4504 30.8649H53.5074C53.6622 30.8649 53.8106 30.8034 53.9201 30.694C54.0295 30.5845 54.091 30.4361 54.091 30.2813C54.091 30.1266 54.0295 29.9781 53.9201 29.8687C53.8106 29.7592 53.6622 29.6978 53.5074 29.6978H28.4504L41.9242 16.224C42.0053 16.1436 42.0609 16.0411 42.0839 15.9293C42.107 15.8175 42.0965 15.7014 42.0538 15.5955C42.0111 15.4896 41.9381 15.3987 41.844 15.3342C41.7498 15.2696 41.6387 15.2343 41.5245 15.2327C41.3748 15.2361 41.232 15.2961 41.1248 15.4006L27.627 28.8784V0.631812C27.6337 0.551387 27.6236 0.470453 27.5974 0.394122C27.5712 0.317792 27.5295 0.247725 27.4748 0.188348C27.4202 0.128972 27.3538 0.0815768 27.2799 0.0491576C27.206 0.0167384 27.1262 0 27.0455 0C26.9648 0 26.885 0.0167384 26.8111 0.0491576C26.7372 0.0815768 26.6708 0.128972 26.6161 0.188348C26.5615 0.247725 26.5197 0.317792 26.4935 0.394122C26.4673 0.470453 26.4573 0.551387 26.4639 0.631812V28.8744L12.9862 15.4006C12.8799 15.2947 12.7365 15.2345 12.5865 15.2327C12.4368 15.2361 12.2939 15.2961 12.1868 15.4006C12.1324 15.4545 12.0892 15.5186 12.0597 15.5893C12.0303 15.6599 12.0151 15.7357 12.0151 15.8123C12.0151 15.8889 12.0303 15.9647 12.0597 16.0353C12.0892 16.106 12.1324 16.1701 12.1868 16.224L25.6406 29.6978H0.583557C0.428788 29.6978 0.280358 29.7592 0.17092 29.8687C0.0614818 29.9781 0 30.1266 0 30.2813C0 30.4361 0.0614818 30.5845 0.17092 30.694C0.280358 30.8034 0.428788 30.8649 0.583557 30.8649Z" fill="#635AD9"/>
<path d="M0.583557 30.8649H25.6406L12.1628 44.3387C12.0655 44.4501 12.0142 44.5943 12.0192 44.7422C12.0242 44.89 12.0852 45.0304 12.1898 45.135C12.2944 45.2396 12.4348 45.3006 12.5826 45.3056C12.7305 45.3106 12.8747 45.2593 12.9862 45.162L26.4639 31.6883V59.9308C26.4573 60.0113 26.4673 60.0922 26.4935 60.1685C26.5197 60.2449 26.5615 60.3149 26.6161 60.3743C26.6708 60.4337 26.7372 60.4811 26.8111 60.5135C26.885 60.5459 26.9648 60.5626 27.0455 60.5626C27.1262 60.5626 27.206 60.5459 27.2799 60.5135C27.3538 60.4811 27.4202 60.4337 27.4748 60.3743C27.5295 60.3149 27.5712 60.2449 27.5974 60.1685C27.6236 60.0922 27.6337 60.0113 27.627 59.9308V31.6843L41.1008 45.162C41.2123 45.2593 41.3565 45.3106 41.5043 45.3056C41.6522 45.3006 41.7926 45.2396 41.8972 45.135C42.0018 45.0304 42.0627 44.89 42.0678 44.7422C42.0728 44.5943 42.0215 44.4501 41.9242 44.3387L28.4504 30.8649H53.5074C53.6622 30.8649 53.8106 30.8034 53.9201 30.694C54.0295 30.5845 54.091 30.4361 54.091 30.2813C54.091 30.1266 54.0295 29.9781 53.9201 29.8687C53.8106 29.7592 53.6622 29.6978 53.5074 29.6978H28.4504L41.9242 16.224C42.0053 16.1436 42.0609 16.0411 42.0839 15.9293C42.107 15.8175 42.0965 15.7014 42.0538 15.5955C42.0111 15.4896 41.9381 15.3987 41.844 15.3342C41.7498 15.2696 41.6387 15.2343 41.5245 15.2327C41.3748 15.2361 41.232 15.2961 41.1248 15.4006L27.627 28.8784V0.631812C27.6337 0.551387 27.6236 0.470453 27.5974 0.394122C27.5712 0.317792 27.5295 0.247725 27.4748 0.188348C27.4202 0.128972 27.3538 0.0815768 27.2799 0.0491576C27.206 0.0167384 27.1262 0 27.0455 0C26.9648 0 26.885 0.0167384 26.8111 0.0491576C26.7372 0.0815768 26.6708 0.128972 26.6161 0.188348C26.5615 0.247725 26.5197 0.317792 26.4935 0.394122C26.4673 0.470453 26.4573 0.551387 26.4639 0.631812V28.8744L12.9862 15.4006C12.8799 15.2947 12.7365 15.2345 12.5865 15.2327C12.4368 15.2361 12.2939 15.2961 12.1868 15.4006C12.1324 15.4545 12.0892 15.5186 12.0597 15.5893C12.0303 15.6599 12.0151 15.7357 12.0151 15.8123C12.0151 15.8889 12.0303 15.9647 12.0597 16.0353C12.0892 16.106 12.1324 16.1701 12.1868 16.224L25.6406 29.6978H0.583557C0.428788 29.6978 0.280358 29.7592 0.17092 29.8687C0.0614818 29.9781 0 30.1266 0 30.2813C0 30.4361 0.0614818 30.5845 0.17092 30.694C0.280358 30.8034 0.428788 30.8649 0.583557 30.8649Z" fill="#635AD9"/>
</g>
</svg>
