<svg width="101" height="94" viewBox="0 0 101 94" fill="none" xmlns="http://www.w3.org/2000/svg">
<path d="M99.6634 20.6035C88.0332 6.46299 74.3705 -1.51702 69.1466 2.77945C63.9228 7.07592 69.116 22.0219 80.7462 36.1624C87.264 44.0871 94.3405 49.037 96.5518 47.2182C98.7631 45.3995 95.272 37.5008 88.7541 29.5761C77.1239 15.4356 63.4612 7.4556 58.2373 11.7521C53.0135 16.0486 58.2066 30.9946 69.8368 45.1351C76.3546 53.0598 83.4311 58.0096 85.6425 56.1908C87.8538 54.3721 84.3627 46.4734 77.8448 38.5487C66.2146 24.4082 52.5258 16.4496 47.27 20.7724C42.0142 25.0952 47.1813 40.0627 58.8114 54.2032C65.3293 62.1278 72.4058 67.0777 74.6172 65.2589C76.8286 63.4401 73.3371 55.5416 66.8193 47.6169C55.1891 33.4764 41.5265 25.4963 36.3026 29.7928C31.0788 34.0893 36.2722 49.0351 47.9024 63.1756C54.4202 71.1003 61.4964 76.0504 63.7078 74.2316C65.9192 72.4128 62.4281 64.514 55.9102 56.5893C44.28 42.4489 30.6171 34.469 25.3932 38.7655C20.1694 43.062 25.3628 58.0078 36.993 72.1483C43.5108 80.073 50.5873 85.0228 52.7984 83.2043C55.0098 81.3855 51.5187 73.4867 45.0008 65.562C33.3706 51.4216 19.7077 43.4417 14.4842 47.7379C9.26029 52.0344 14.4534 66.9805 26.0836 81.121C32.6014 89.0457 39.6779 93.9955 41.8893 92.1767C44.1004 90.3582 40.6093 82.4594 34.0914 74.5347C22.4612 60.3943 8.77265 52.4355 3.5168 56.7583C-1.73904 61.0811 3.42807 76.0486 15.0582 90.189" stroke="#5B3AEE" stroke-width="2" stroke-linecap="round"/>
</svg>
