<svg width="133" height="123" viewBox="0 0 133 123" fill="none" xmlns="http://www.w3.org/2000/svg">
<path d="M130.638 26.5935C115.378 8.04023 97.4515 -2.4301 90.5975 3.20717C83.7435 8.84443 90.5573 28.4546 105.817 47.0079C114.369 57.4056 123.654 63.9002 126.555 61.5139C129.456 59.1275 124.876 48.7639 116.324 38.3662C101.064 19.8129 83.1378 9.3426 76.2837 14.9799C69.4297 20.6172 76.2434 40.2274 91.503 58.7807C100.055 69.1785 109.34 75.673 112.241 73.2866C115.143 70.9002 110.562 60.5366 102.01 50.1389C86.7505 31.5856 68.7899 21.1434 61.8938 26.8152C54.9978 32.487 61.7774 52.1253 77.037 70.6786C85.5889 81.0763 94.8737 87.5709 97.7752 85.1845C100.677 82.7981 96.0957 72.4347 87.5439 62.037C72.2843 43.4837 54.358 33.0132 47.5039 38.6505C40.6498 44.2878 47.464 63.8978 62.7236 82.4511C71.2754 92.8488 80.5598 99.3437 83.4613 96.9573C86.3628 94.5709 81.7823 84.2072 73.2304 73.8094C57.9708 55.2562 40.0441 44.786 33.19 50.4233C26.336 56.0606 33.1501 75.6706 48.4097 94.2239C56.9615 104.622 66.2464 111.116 69.1475 108.73C72.049 106.344 67.4684 95.98 58.9165 85.5823C43.6569 67.029 25.7302 56.5588 18.8766 62.1958C12.0225 67.8331 18.8362 87.4434 34.0958 105.997C42.6477 116.394 51.9325 122.889 54.834 120.503C57.7351 118.116 53.1545 107.753 44.6026 97.3551C29.343 78.8018 11.3827 68.3593 4.48664 74.0311C-2.40939 79.7029 4.37022 99.3413 19.6298 117.895" stroke="#635AD9" stroke-width="3" stroke-linecap="round"/>
</svg>
