<svg width="143" height="156" viewBox="0 0 143 156" fill="none" xmlns="http://www.w3.org/2000/svg">
<path d="M139.32 48.4688C138.537 57.7818 115.363 63.4195 87.5061 61.1276C59.649 58.8357 37.7218 49.4224 38.4594 40.166C39.197 30.9096 62.4166 25.2154 90.2737 27.5073C118.131 29.7991 140.071 39.1871 139.32 48.4688Z" stroke="#219BE4" stroke-miterlimit="10"/>
<path d="M127.495 70.7875C126.711 80.1005 103.537 85.7382 75.6804 83.4463C47.8233 81.1544 25.8759 71.7791 26.6337 62.4847C27.3915 53.1903 50.5574 47.5974 78.448 49.826C106.339 52.0545 128.246 61.5058 127.495 70.7875Z" stroke="#219BE4" stroke-miterlimit="10"/>
<path d="M115.595 93.2462C114.811 102.559 91.6377 108.197 63.7806 105.905C35.9235 103.613 13.9828 94.2251 14.7339 84.9434C15.4849 75.6616 38.6911 69.9927 66.5482 72.2846C94.4053 74.5765 116.353 83.9518 115.595 93.2462Z" stroke="#219BE4" stroke-miterlimit="10"/>
<path d="M103.769 115.565C102.985 124.878 79.8115 130.516 51.9544 128.224C24.0974 125.932 2.17008 116.518 2.90771 107.262C3.64535 98.0057 26.8314 92.3747 54.722 94.6033C82.6126 96.8319 104.526 106.27 103.769 115.565Z" stroke="#219BE4" stroke-miterlimit="10"/>
</svg>
